<?xml version="1.0" encoding="utf-8"?>
<!-- Generator: Adobe Illustrator 16.0.0, SVG Export Plug-In . SVG Version: 6.00 Build 0)  -->
<!DOCTYPE svg PUBLIC "-//W3C//DTD SVG 1.1//EN" "http://www.w3.org/Graphics/SVG/1.1/DTD/svg11.dtd">
<svg version="1.1" id="Layer_1" xmlns="http://www.w3.org/2000/svg" xmlns:xlink="http://www.w3.org/1999/xlink" x="0px" y="0px"
	 width="283.46px" height="283.46px" viewBox="0 0 283.46 283.46" enable-background="new 0 0 283.46 283.46" xml:space="preserve">
<path opacity="0.5" fill-rule="evenodd" clip-rule="evenodd" d="M34.236,142.469c0.479-27.205,8.899-50.795,26.413-70.657
	c21.349-24.213,48.621-36.718,80.833-36.673c28.629,0.041,53.707,10.451,74.283,30.543c20.512,20.031,31.305,44.834,32.129,73.31
	c0.801,27.733-8.146,52.638-26.705,73.481c-21.359,23.988-48.551,36.025-80.562,36.296c-24.018,0.203-45.944-7.339-64.754-22.22
	C48.667,205.028,34.935,176.511,34.236,142.469z M97.771,90.73c1.313-1.13,3.259-1.166,4.161-3.215
	c0.772-1.752,2.49-1.35,3.47,0.491c0.259,0.487,0.247,1.163,0.947,1.367c1.346,0.391,4.857-0.941,5.695-2.143
	c1.079-1.542,1.853-3.327,3.302-4.576c1.088-0.937,2.518-1.806,3.843-1.013c0.792,0.475,1.339,1,2.275,0.685
	c0.452-0.153,0.827,0.087,1.007,0.382c0.236,0.389-0.165,0.613-0.383,0.947c-0.78,1.188-1.849,0.551-2.754,0.604
	c-1.12,0.065-2.025-0.042-1.528,1.601c0.233,0.771,0.155,1.708-0.018,2.516c-0.648,3.05-0.62,2.76,2.407,3.518
	c0.528,0.132,1.24,0.054,1.208,0.734c-0.026,0.584-0.556,1.141-1.222,1.07c-0.875-0.088-1.623,0.38-2.448,0.383
	c-1.288,0.008-1.778,0.623-1.526,1.854c0.188,0.908,0.587,0.938,1.957,0.746c1.369-0.193,3.025-1.256,4.033,0.54
	c0.776,1.382,1.521,1.642,2.705,0.583c0.167-0.148,0.405-0.258,0.626-0.304c0.963-0.205,1.728-0.442,1.074-1.725
	c-0.155-0.303,0.069-1.055,0.36-1.262c0.328-0.236,0.836,0.051,1.293,0.308c0.771,0.433,1.226,1.07,1.677,1.747
	c1.635,2.455,2.297,2.552,4.224,0.313c0.607-0.709,1.232-0.678,1.911-0.548c0.422,0.078,0.886,0.443,0.849,0.956
	c-0.055,0.736-0.5,1.258-1.216,1.51c-1.694,0.596-3.4,1.169-4.682,2.525c-0.811,0.855-1.679,0.816-2.803,0.544
	c-1.286-0.308-3-0.751-3.924,0.283c-0.98,1.101-1.729,1.497-3.103,1.043c-0.758-0.25-1.63-0.13-2.444-0.2
	c-1.66-0.141-2.652,1.429-2.171,3.083c0.326,1.122,0.716,2.241,0.875,3.392c0.173,1.234,0.041,2.522-1.331,3.107
	c-1.108,0.472-2.514,3.058-1.752,3.838c1.548,1.588,0.904,3.384,0.934,5.125c0.04,2.416,0.01,2.409,2.297,1.67
	c0.278-0.09,0.594-0.088,0.893-0.09c2.745-0.037,5.415,0.453,8.023,1.252c0.875,0.268,1.509,0.686,1.562,1.96
	c0.121,2.98,0.379,3.144,3.25,1.961c2.551-1.051,5.024-1.209,7.659-0.496c1.477,0.399,4.292-0.537,4.605-1.477
	c0.55-1.644,1.792-1.581,3.034-1.314c1.357,0.29,1.623,1.194,0.987,2.399c-0.075,0.145-0.028,0.361-0.008,0.54
	c0.103,0.923,0.622,1.55,1.521,1.669c1.099,0.146,0.463-0.864,0.729-1.291c0.277-0.443,0.521-0.935,0.634-1.437
	c0.288-1.274,1.003-1.713,2.309-1.62c2.088,0.149,3.822,0.811,5.155,2.514c0.34,0.431,0.414,1.206,1.368,1.181
	c1.356-0.039,2.751,0.069,4.075,0.358c1.516,0.328,3.045,0.38,4.496,1.334c2.521,1.662,5.148,3.238,8.336,3.534
	c1.929,0.181,3.996-0.391,5.788,0.855c0.228,0.157,0.3-0.239,0.44-0.411c1.106-1.337,0.006-4.874-1.896-5.536
	c-2.444-0.847-4.486-2.487-6.924-3.314c-0.661-0.225-0.665-0.543-0.504-1.208c0.365-1.503,1.433-1.524,2.582-1.449
	c1.17,0.077,1.646-0.781,1.853-1.602c0.226-0.893-0.768-0.725-1.284-0.962c-0.859-0.396-1.697-0.694-2.691-0.755
	c-1.943-0.111-3.913-0.305-5.796-0.768c-5.276-1.297-10.39-3.115-15.441-5.119c-1.55-0.614-3.041-1.302-4.259-2.417
	c-1.16-1.06-2.34-2.267-1.895-4.044c0.374-1.499,1.182-2.957,2.843-3.133c1.991-0.211,4.151-0.479,5.563,1.634
	c0.341,0.511,0.817,1.17,1.626,0.692c0.424-0.25,0.671-0.905,1.323-0.276c0.511,0.493,0.401,0.87,0.263,1.527
	c-0.581,2.731-0.551,2.902,2.224,3.583c3.411,0.838,6.431-0.83,9.215-2.365c2.155-1.189,1.83-2.896-0.645-3.541
	c-2.853-0.743-3.481-2.939-4.33-5.15c-0.209-0.546-0.082-0.785,0.408-1.177c1.194-0.957,2.341-2.022,2.364-3.769
	c0.016-1.188,0.601-1.772,1.855-1.796c0.48-0.011,0.933-0.557,1.434-0.634c1.117-0.168,1.22-0.542,1.001-1.682
	c-0.255-1.33-0.699-2.615-0.872-3.955c-0.04-0.312-0.178-0.762,0.297-0.912c0.516-0.168,0.796,0.129,0.883,0.597
	c0.347,1.827,1.808,3.004,2.747,4.46c0.8,1.238,1.601,2.801,3.232,3.229c1.799,0.467,3.671,0.511,5.521,0.372
	c1.428-0.105,2.915,0.486,3.51,1.35c1.114,1.616,2.56,1.931,4.189,2.159c3.432,0.483,6.896,1.069,10.309,0.098
	c2.49-0.711,5.215-1.181,6.658-3.786c0.396-0.713,1.005-1.767,0.348-2.236c-0.656-0.468-1.969-1.216-2.619,0.453
	c-0.273,0.7-1.138,0.868-1.764,1.086c-3.381,1.173-6.853,1.521-10.239,0.137c-2.311-0.943-5.27-1.068-6.139-4.203
	c-0.114-0.412-0.623-0.583-1.072-0.472c-2.512,0.614-3.274-1.152-4.115-2.924c-1.243-2.62,0.044-4.956,2.954-5.457
	c1.139-0.193,2.488-0.179,3.197-1.377c0.799-1.348,1.854-1.494,3.098-0.767c0.944,0.552,2.598,0.412,2.604,1.929
	c0.006,1.838-1.824,1.367-2.833,1.617c-1.249,0.307-0.97,0.971-0.608,1.51c1.483,2.216,5.6,3.463,8.279,2.641
	c1.486-0.454,2.927-0.489,4.527-0.171c3.084,0.614,5.528-0.915,5.125-4.071c-0.076-0.595-0.011-1.206-0.007-1.813
	c0.007-0.64,0.499-1.098,0.942-1.195c0.714-0.159,0.783,0.696,0.822,1.089c0.224,2.294,1.452,4.459,0.825,6.88
	c-0.135,0.52,0.076,1.226,0.976,1.418c1.084,0.23,2.122,0.634,3.258,0.708c0.805,0.054,1.684,0.214,1.876,1.269
	c0.431,2.369,1.323,4.637,1.175,7.139c-0.114,1.959,0.199,3.941,0.273,5.914c0.081,2.169,0.82,3.067,2.895,3.035
	c1.346-0.021,1.587,1.104,2.145,1.799c1.26,1.568,2.51,2.019,4.447,1.681c2.854-0.501,5.76-1.188,8.609-0.017
	c1.149,0.473,0.859-0.494,0.731-0.76c-0.542-1.115-0.612-2.438-1.14-3.45c-1.733-3.318-2.905-6.872-4.586-10.214
	c-1.318-2.619-3.215-4.566-5.498-6.261c-3.441-2.548-6.148-5.559-6.127-10.18c0.001-0.638-0.351-0.974-0.688-1.392
	c-3.553-4.38-6.927-8.92-11.302-12.562c-0.394-0.327-0.853-0.87-1.28-0.559c-0.577,0.42-0.022,1.1,0.248,1.409
	c1.386,1.585,1.657,3.302,1.061,5.281c-0.166,0.557-0.201,1.031-0.877,1.152c-0.653,0.117-0.948-0.213-1.189-0.761
	c-0.902-2.063-2.001-3.997-4.061-5.135c-0.694-0.384-1.307-0.854-1.784-1.459c-0.824-1.054-1.806-1.183-3.024-0.825
	c-0.764,0.224-1.557,0.733-2.357,0.455c-2.609-0.905-5.132-1.997-7.239-3.869c-0.789-0.702-1.193-1.46-0.697-2.597
	c0.525,0.258,1.115,0.424,1.553,0.777c1.637,1.326,3.502,1.599,5.527,1.455c2.627-0.185,5.219,0.024,7.712,0.976
	c0.249,0.096,0.706,0.114,0.833-0.034c0.326-0.374-0.086-0.647-0.332-0.869c-2.162-1.927-4.476-3.675-6.949-5.154
	c-4.604-2.749-9.338-5.267-14.266-7.411c-1.61-0.697-3.111-1.176-4.854-0.396c-1.62,0.723-2.94,0.437-3.911-1.328
	c-0.402-0.734-0.459-1.866-1.652-2.141c-1.759-0.402-3.466-1.041-5.229-1.409c-2.997-0.622-6.043-1.043-9.04-1.598
	c-4.865-0.9-9.75-0.95-14.628-1.328c-2.046-0.157-4.066,0.383-6.083,0.325c-4.833-0.145-9.559,0.672-14.245,1.561
	c-7.813,1.479-15.373,3.918-22.495,7.482c-3.729,1.865-7.516,3.59-11.01,6.02c-3.431,2.383-6.492,5.316-10.246,7.24
	c-0.19,0.097-0.345,0.337-0.434,0.545c-0.747,1.752-1.849,3.206-3.385,4.359c-0.45,0.339-0.708,0.931-1.06,1.4
	c-0.466,0.625-0.5,1.294,0.139,1.73c0.601,0.409,1.221,0.237,1.737-0.372c0.647-0.762,1.273-1.529,2.211-2.032
	c0.705-0.379,1.034-0.204,1.51,0.279c0.691,0.699-0.035,1.24-0.314,1.508c-0.754,0.726-1.641,1.359-2.575,1.837
	c-2.361,1.206-5.515,1.514-5.55,5.195c-0.001,0.102-0.117,0.204-0.178,0.307c-1.055,1.744-2.566,3.294-2.357,5.575
	c0.021,0.225-0.042,0.41-0.308,0.563c-2.013,1.156-1.982,2.449,0.069,3.663c0.977,0.577,1.893,1.249,2.03,2.461
	c0.094,0.836,0.504,0.971,1.244,1.186c2.644,0.765,5.199,0.193,7.701-0.446c3.366-0.857,6.28-2.55,8.799-5.05
	c1.439-1.431,2.48-3.496,4.826-3.844c3.216-0.48,6.341,0.389,9.498,0.696c0.826,0.082,0.922,1.124,0.294,1.655
	c-0.964,0.817-1.886,1.694-3.297,1.909c-1.81,0.273-2.735,2.069-2.18,3.795c0.158,0.496,0.317,0.991,0.474,1.479
	C96.962,91.199,97.422,91.029,97.771,90.73z M121.504,234.489c0.036-0.6,1.046-1.093,0.163-1.807
	c-0.813-0.658-1.738-0.431-2.571-0.248c-0.654,0.144-1.321,0.563-1.813,1.035c-0.756,0.726-1.486,0.836-2.421,0.437
	c-0.533-0.225-1.523-0.402-1.593,0.121c-0.159,1.186-0.741,2.696,0.338,3.586c1.743,1.442,3.479,3.142,5.76,3.598
	c4.041,0.814,8.133,1.796,12.219,1.869c4.953,0.092,9.886,0.588,14.897,0.266c6.241-0.406,12.33-1.321,18.4-2.674
	c9.034-2.016,17.552-5.373,25.622-9.851c4.519-2.51,8.915-5.265,12.936-8.517c3.372-2.726,6.637-5.61,9.721-8.655
	c2.349-2.32,4.541-4.817,6.625-7.413c2.144-2.67,4.19-5.409,6.097-8.238c1.142-1.699,2.32-3.389,3.305-5.229
	c1.045-1.952,2.181-3.882,3.131-5.883c1.367-2.88,2.557-5.847,3.725-8.817c0.929-2.365,1.65-4.803,1.774-7.643
	c-1.297,0.946-1.425,2.26-2.007,3.28c-2.272,3.987-5.45,7.3-8.095,11.006c-0.864,1.21-1.89,1.882-3.341,1.887
	c-2.07,0.007-3.518,1.194-4.458,2.782c-0.548,0.928-1.243,1.205-2.062,1.588c-1.49,0.699-3.189,1.126-3.814,2.992
	c-0.397,1.194-1.257,1.482-2.455,1.008c-0.486-0.193-1.109-0.819-1.614-0.146c-1.564,2.098-4.05,2.23-6.228,3.002
	c-0.863,0.305-1.744,0.84-1.661,1.618c0.254,2.401-1.516,2.215-2.864,2.367c-2.943,0.336-5.267,1.967-7.746,3.333
	c-1.928,1.064-3.249,2.969-5.555,3.544c-3.341,0.835-6.631,1.894-9.898,2.988c-1.181,0.396-2.734,0.657-3.313,1.747
	c-1.756,3.304-4.563,4.982-8.01,5.828c-1.684,0.414-1.812,0.682-0.938,2.217c0.684,1.204,1.101,2.565,2.129,3.565
	c0.179,0.176,0.295,0.401,0.121,0.638c-0.687,0.943,0.096,1.54,0.54,2.182c0.59,0.857,0.233,2.248-0.774,2.198
	c-1.728-0.089-1.89,0.876-1.822,2.069c0.054,0.929-0.605,1.256-1.151,1.205c-0.773-0.077-0.559-0.664-0.4-1.339
	c0.52-2.233-0.419-3.065-2.543-2.133c-1.251,0.548-2.186,0.38-3.213-0.271c-1.04-0.659-2.013-1.614-3.148-1.891
	c-2.761-0.669-4.854-2.216-6.631-4.292c-1.122-1.31-2.636-1.954-4.146-2.591c-0.987-0.416-2.912,0.673-3.102,1.641
	c-0.476,2.41-0.517,2.514-2.776,1.75c-1.872-0.631-3.822-1.117-5.33,0.273c-1.364,1.262-2.976,1.762-4.565,2.335
	c-1.35,0.491-2.133,1.354-2.678,2.546c-0.813,1.781-0.294,2.585,1.625,2.597c0.787,0.007,1.572,0.002,2.359,0.002
	c0.677-0.002,1.28,0.165,1.583,0.839c0.691,1.528,1.881,1.517,3.259,1.147c3.487-0.932,6.246,0.297,7.768,3.442
	c-1.587,0.07-3.049-0.191-4.388-1.11c-0.638-0.436-1.286-0.753-2.137-0.07c-0.864,0.695-2.079,0.77-3.055,0.253
	c-0.913-0.485-1.814-0.449-2.758-0.521c-2.359-0.178-4.495,1.117-7.033,0.745C121.492,236.047,121.459,235.266,121.504,234.489z
	 M144.25,202.778c-0.648,1.463-2.297,2.339-3.931,1.964c-2.943-0.681-5.582,3.054-5.409,5.16c0.094,1.145,0.803,1.289,1.902,0.819
	c0.893-0.384,1.265-1.161,1.615-1.799c0.757-1.384,1.614-1.19,2.883-0.874c2.066,0.515,3.828,2.355,6.368,1.153
	c1.041-0.491,1.185-0.597,0.674-1.491c-0.222-0.389-0.667-0.909-0.32-1.311c0.364-0.423,1.103-0.362,1.521-0.11
	c0.895,0.538,1.59,0.123,2.331-0.231c0.892-0.425,1.752-1.171,2.667-1.242c1.807-0.145,1.758-0.592,0.877-1.952
	c-0.511-0.789-0.552-2.037,0.098-2.897c0.644-0.848,1.409,0.086,2.106,0.195c1.581,0.248,2.54,1.404,3.468,2.609
	c0.285,0.371,0.903,1.405,1.309,0.635c0.701-1.329,2.283-2.52,1.413-4.361c-0.542-1.14-0.363-1.566,1.001-1.596
	c1.473-0.028,3.205-0.006,3.672-1.896c0.266-1.076,0.91-1.693,1.783-2.016c1.797-0.666,1.824-2.199,1.973-3.669
	c0.092-0.899,0.067-1.815,0.01-2.72c-0.261-4.018,2.106-6.574,4.884-8.93c0.525-0.448,0.884-0.793,1.67-0.356
	c0.774,0.432,0.764,1.018,0.696,1.659c-0.128,1.215,0.307,2.077,1.115,3.032c0.881,1.043,2.185,2,1.986,3.718
	c-0.094,0.816,0.623,0.669,1.136,0.697c2.394,0.123,4.741-0.357,7.11-0.531c0.528-0.037,0.799-0.244,1.157-0.518
	c2.207-1.68,1.792-3.969,1.465-6.229c-0.177-1.224-0.378-2.453-0.614-3.656c-0.458-2.336,1.666-1.369,2.412-2.115
	c0.451-0.453,0.915-0.562,1.407-0.077c0.374,0.366,0.779,0.628,0.362,1.334c-0.477,0.811,0.062,1.164,0.889,1.44
	c0.672,0.223,1.305,0.094,1.946,0.195c0.759,0.121,2.075-0.426,2.042,0.788c-0.038,1.353,0.998,3.043-0.645,4.093
	c-2.109,1.348-4.037,2.795-5.693,4.766c-1.197,1.423-1.525,2.922-1.892,4.527c-0.087,0.384-0.255,1.064,0.552,1.045
	c1.239-0.027,2.477,0.181,3.689-0.433c2.73-1.379,4.187-4.252,6.973-5.642c1.857-0.928,2.708-1.266,3.914,0.467
	c0.973,1.396,1.756,0.876,2.495,0.083c0.988-1.065,2.17-1.805,3.433-2.43c0.88-0.435,1.684-0.913,1.988-1.888
	c0.169-0.549,1.013-1.092,0.248-1.708c-0.687-0.555-1.285-0.086-1.815,0.402c-0.825,0.756-1.591,1.26-2.449-0.034
	c-0.423-0.637-1.109-0.587-1.735-0.124c-0.899,0.664-1.806,1.318-2.718,1.961c-0.46,0.327-0.935,0.691-1.172-0.239
	c-0.54-2.108,0.826-5.386,2.774-6.406c0.893-0.468,1.383-1.014,1.236-2.084c-0.07-0.512,0.018-1.037,0.17-1.58
	c0.83-2.978,0.233-3.701-2.802-3.955c-1.169-0.098-2.513,0.703-3.491-0.789c-1.357-2.064-1.441-2.008-3.717-0.777
	c-1.355,0.735-3.356,0.557-3.896-0.38c-1.217-2.104-1.098-4.801-2.93-6.653c-0.15-0.153-0.059-0.587-0.015-0.883
	c0.289-1.909,0.592-3.818,0.896-5.728c0.195-1.217-0.449-1.779-1.643-1.424c-0.595,0.177-1.297,0.671-1.762,0.502
	c-1.908-0.692-2.248,0.624-2.975,1.847c-0.818,1.381-0.297,3.895-2.986,3.858c-0.085-0.001-0.213,0.374-0.26,0.589
	c-0.738,3.416,0.203,4.041,3.246,4.069c0.562,0.004,1.211-0.034,1.409,0.548c0.79,2.315,1.56,4.641,2.202,7
	c0.315,1.161-0.381,1.545-1.54,1.56c-1.625,0.02-3.182-0.649-4.812-0.393c-0.803,0.129-1.438-0.154-1.836-0.832
	c-0.416-0.712,0.17-1.247,0.497-1.763c0.638-1.002,1.418-1.977,1.157-3.236c-0.152-0.74,0.044-1.852-1.356-1.809
	c-1.256,0.035-1.912,0.496-1.894,1.814c0.006,0.402,0.299,1.104-0.511,1.084c-0.729-0.017-1.878-0.071-1.93-0.775
	c-0.177-2.402-1.528-2.067-3.017-1.506c-0.472,0.176-0.741,0.028-0.87-0.297c-0.179-0.451,0.26-0.541,0.573-0.655
	c1.252-0.451,2.342-1.238,3.693-1.536c1.174-0.257,1.612-1.138,1.422-2.497c-0.158-1.126-0.785-2.044-0.867-3.226
	c-0.183-2.61,1.005-4.811,1.655-7.169c0.187-0.679,0.565-1.358-0.154-1.89c-0.671-0.492-1.396-0.644-2.092,0.074
	c-0.278,0.289-0.771,0.389-1.005,0.695c-0.684,0.894-1.602,0.771-2.464,0.586c-1.07-0.233-2.417-0.627-2.996-1.229
	c-2.049-2.142-4.515-1.468-6.889-1.591c-0.682-0.036-0.907,0.034-0.628,0.898c0.533,1.646,0.78,3.385,0.483,5.135
	c-0.091,0.525,0.444,1.314-0.397,1.542c-0.781,0.214-1.079-0.63-1.553-1.044c-0.207-0.181-0.249-0.541-0.438-0.755
	c-0.584-0.666-1.087-1.164-1.622,0.147c-0.443,1.086-0.917,2.441-2.074,2.824c-2.988,0.984-4.098,3.288-4.934,6
	c-0.357,1.162-0.781,2.333-2.288,2.866c-1.044,0.369-1.687,1.275-0.457,2.654c1.173,1.315,2.071,2.996,1.978,4.984
	c-0.02,0.426-0.076,0.644-0.383,0.801c-0.355,0.187-0.638-0.121-0.725-0.352c-0.585-1.542-1.986-1.699-3.115-1.326
	c-1.625,0.533-2.586-0.15-3.686-1.056c-0.592-0.488-1.267-1.2-1.798,0.332c-0.431,1.248-1.235,2.534-2.232,3.374
	c-1.095,0.925-2.304,2.034-4.171,1.163c-2.86-1.328-5.363-0.161-7.577,1.708c-0.536,0.453-1.542,0.909-1.045,1.854
	c0.449,0.853,1.21,1.333,2.355,1.296c2.192-0.069,4.393,0.063,6.589,0.138c3.725,0.129,7.249,2.914,8.279,6.498
	c0.131,0.453,0.015,0.76-0.275,1.135c-1.18,1.522-2.376,3.055-2.309,5.216c0.357-0.024,0.782,0.131,1.269-0.157
	c0.548-0.324,1.259-0.376,1.577,0.27c0.283,0.582-0.046,1.36-0.479,1.666c-0.55,0.386-0.998,0.854-1.463,1.306
	c-0.633,0.617-0.77,1.444-0.056,1.979c0.561,0.418,0.925,1.129,1.88,1.268C145.656,199.608,145.656,199.608,144.25,202.778z
	 M79.494,141.071c-1.527-0.765-3.056-1.562-4.182-3.179c-1.167-1.674-2.25-3.447-3.622-5.029c-1.437-1.657-2.785-3.543-3.808-5.471
	c-1.565-2.941-0.68-6.305-0.319-9.436c0.17-1.448-0.332-3.16,0.875-4.461c0.233-0.254-0.117-0.911,0.585-0.896
	c0.641,0.012,1.102,0.473,1.207,0.935c0.396,1.736,1.525,3.136,2.076,4.797c0.192,0.583,0.071,1.565,1.173,1.521
	c0.977-0.038,1.726-0.566,2.031-1.397c1.229-3.33,4.363-4.612,6.843-6.612c0.913-0.737,1.268,0.195,1.816,0.434
	c0.805,0.347-0.009,0.833-0.119,1.158c-0.24,0.708-0.655,1.371-1.502,1.617c-1.262,0.363-1.137,0.977-0.267,1.717
	c0.651,0.557,1.163,1.24,1.093,2.14c-0.222,2.812,1.011,5.097,2.604,7.233c0.238,0.32,0.983,0.791,1.164,0.504
	c0.888-1.416,2.343-2.24,3.378-3.429c1.305-1.503,1.555-1.759,3.162-0.521c0.917,0.71,2.054,1.425,3.112,1.232
	c1.604-0.29,2.321-3.147,1.255-4.452c-0.776-0.947-0.98-2.018-0.854-3.155c0.162-1.49-0.394-1.977-1.802-1.396
	c-0.78,0.322-1.442,0.854-1.835,1.619c-0.527,1.025-1.472,1.465-2.465,1.836c-0.239,0.089-0.442-0.109-0.442-0.41
	c0-1.264,0.769-1.953,1.731-2.638c0.819-0.583,1.452-1.251,1.22-2.615c-0.656-3.837-1.019-7.725-1.529-11.587
	c-0.091-0.697-0.373-0.958-1.234-0.631c-1.438,0.545-2.765,1.626-4.407,1.405c-1.118-0.149-1.925,0.221-2.604,1.004
	c-1.5,1.736-3.992,2.296-5.18,4.413c-0.146,0.259-0.616,0.321-0.907,0.516c-0.79,0.525-1.609,0.529-2.253-0.119
	c-0.559-0.561-0.964-1.155-0.586-2.181c0.593-1.614-0.201-3.288-1.606-3.378c-2.785-0.179-5.383-1.414-8.238-1.204
	c-2.299,0.167-4.847,3.124-4.406,5.397c0.312,1.607-0.46,2.617-2.082,2.604c-1.501-0.013-2.913,0.371-4.347,0.719
	c-0.537,0.131-0.833,0.337-0.95,0.892c-0.37,1.737,0.895,4.004,2.562,4.588c1.673,0.587,2.715,1.742,2.864,3.541
	c0.071,0.858,0.523,1.282,1.247,1.539c1.761,0.623,2.765,2.181,3.033,3.708c0.767,4.383,4.198,6.917,6.618,10.108
	c1.324,1.746,2.799,3.46,4.367,5.039c1.662,1.677,2.667,4.104,4.989,4.979c1.364,0.514,2.621,1.167,3.573,2.126
	c0.855,0.863,1.618,0.914,2.81,0.746C83.71,144.495,82.104,142.379,79.494,141.071z M109.787,200.784
	c2.675-0.652,5.426-0.985,8.138-1.49c0.965-0.179,1.889-0.886,2.001-1.651c0.142-0.962-1.092-1.46-1.741-2.139
	c-0.473-0.492-0.938-0.075-1.396,0.289c-0.601,0.482-1.092,0.522-1.98,0.07c-2.533-1.293-2.088-2.178-4.73,0.5
	c-1.121,1.14-2.275,2.301-4.079,1.836c-2.148-0.555-4.277-1.181-6.4-1.821c-3.072-0.931-6.112-1.976-9.205-2.831
	c-1.492-0.412-2.408,0.717-2.342,2.184c0.094,2.054,1.067,3.832,1.492,5.771c0.336,1.539,0.969,2.626,2.759,3.051
	c1.309,0.31,2.448,1.336,3.657,2.051c2.053,1.208,3.583,0.284,3.792-2.066c0.156-1.738-1.007-2.365-2.081-3.337
	C101.763,201.54,105.773,201.764,109.787,200.784z M194.141,111.844c-1.137,0.806-3.205,0.816-2.458,3.207
	c0.168,0.539-0.715,1.133-1.506,1.166c-0.543,0.022-1.087,0.016-1.629,0.004c-1.185-0.023-1.527,0.463-1.505,1.706
	c0.032,1.622,0.64,1.999,2.166,1.961c3.4-0.083,6.774-0.37,10.161-0.636c2.608-0.201,5.286,0.286,7.97-0.065
	c1.355-0.175,2.18-0.884,2.57-1.869c0.34-0.854-0.744-1.308-1.379-1.835c-2.319-1.914-5.067-3.124-7.601-4.686
	c-2.328-1.436-4.763-2.536-7.592-1.189c0.117,0.821,1.065,1.051,1.347,1.793C194.51,111.546,194.334,111.707,194.141,111.844z
	 M75.945,187.007c-0.079-0.179-0.393-0.397-0.563-0.37c-2.002,0.309-3.846-0.568-5.777-0.737c-1.563-0.136-3.593-1.722-3.595-3.276
	c-0.001-1.982-0.277-3.927-0.393-5.891c-0.075-1.292-0.288-2.593-1.165-3.521c-0.966-1.026-1.957,0.029-2.922,0.317
	c-0.167,0.051-0.369-0.017-0.54,0.027c-3.156,0.817-4.717,2.99-4.116,5.556c0.159,0.682,0.651,0.971,1.027,1.409
	c0.969,1.125,2.372,1.919,2.909,3.366c1.729,4.652,6.662,6.061,10.711,5.476c1.386-0.199,1.944,0.304,2.514,1.142
	c0.628,0.926,0.905,1.993,1.05,3.133c0.097,0.745,0.421,1.605,1.465,1.676c0.569,0.038,1.252,0.011,1.319-0.627
	c0.067-0.663,0.371-1.244,0.493-2.078C77.603,190.831,76.79,188.91,75.945,187.007z M194.967,141.009
	c1.478,0.606,2.646,0.187,3.678-0.912c0.863-0.921,2.124-1.69,2.503-2.771c0.345-0.983-1.021-1.994-1.264-3.091
	c-0.275-1.248-0.991-1.467-2.032-1.318c-1.57,0.227-3.131,0.555-4.707,0.712c-3.598,0.351-6.531,2.071-9.186,4.358
	c-1.149,0.988-0.291,2.078,0.293,2.852c0.518,0.688,1.382,1.195,2.211-0.035c0.75-1.108,1.696-1.448,2.513,0.111
	c0.483,0.924,1.095,1.602,2.206,0.521c0.603-0.584,1.504-0.662,2.365-0.575C194.023,140.904,194.544,140.834,194.967,141.009z
	 M226.986,133.291c0.076-0.761-0.886-0.857-1.455-1.072c-0.44-0.164-1.024-0.106-1.255,0.429c-0.437,1.017-1.06,2.044-1.142,3.102
	c-0.202,2.504-1.311,3.907-3.873,4.152c-0.361,0.034-0.8,0.171-1.176,0.299c-0.633,0.214-1.518,0.296-1.531,1.22
	c-0.01,0.752,0.521,1.227,1.183,1.572c0.882,0.461,1.939,0.8,2.554,1.508c1.399,1.619,3.074,1.576,4.544,0.66
	c1.194-0.744,3.905-0.016,3.353-2.901C227.698,139.305,226.675,136.395,226.986,133.291z M83.738,216.551
	c0.277,2.665,0.832,3.33,3.339,3.789c1.105,0.205,1.519,0.7,0.883,1.787c-0.404,0.692-0.473,1.484,0.426,1.777
	c0.881,0.281,1.846,0.368,2.781,0.414c1.382,0.064,1.963-0.631,1.56-1.999c-0.299-1.012-0.37-2.114-0.7-3.062
	c-0.813-2.333-2.563-4.138-4.042-6.082c-0.056-0.071-0.229-0.094-0.338-0.077c-1.488,0.216-2.924-0.354-4.469-0.383
	C83.387,214.114,83.611,215.325,83.738,216.551z M122.963,174.594c0.356,0.711,0.824,1.805,1.651,1.677
	c1.17-0.18,2.223-1.079,1.881-2.45c-0.391-1.57,0.547-1.407,1.432-1.351c0.911,0.061,1.74-0.042,1.852-1.091
	c0.102-0.96-0.126-1.817-1.278-2.219c-1.151-0.402-2.303-0.871-3.219-1.765c-0.722-0.706-1.475-0.338-2.298-0.066
	c-0.977,0.325-0.411,0.912-0.419,1.411c-0.009,0.603-0.003,1.208-0.004,1.809C122.605,171.911,122.323,173.328,122.963,174.594z
	 M154.189,216.278c-0.646-1.8-1.778-3.382-2.122-5.337c-0.132-0.748-1.26-1.152-2.245-1.131c-0.873,0.022-1.207,0.569-1.535,1.256
	c-0.549,1.156-1.136,2.302-1.781,3.406c-0.667,1.137,0.074,1.935,0.85,2.174c1.836,0.57,3.768,0.822,5.662,1.203
	C154.34,217.998,154.704,217.713,154.189,216.278z M162.209,139.443c1.314,0.002,2.633-0.018,3.945,0.043
	c0.317,0.013,0.61,0.332,0.892-0.09c0.364-0.547-0.123-0.773-0.399-1.022c-1.13-1.017-1.74-2.054-0.524-3.45
	c0.655-0.754,0.301-1.696,0.268-2.568c-1.312,0.262-2.826-1.338-3.657-0.432c-1.31,1.427-2.945,2.943-2.801,5.781
	C159.93,139.439,159.93,139.437,162.209,139.443z M127.892,184.858c-0.422,0.929,0.294,1.964,0.968,2.776
	c1.665,2.004,4.029,2.89,6.353,3.735c0.893,0.323,1.583-0.685,2.22-1.313c0.726-0.712-0.333-0.782-0.453-1.196
	c-0.275-0.951-1.233-1.371-1.837-1.993c-1.216-1.248-2.054-3.447-4.352-2.766C129.613,184.007,128.338,183.88,127.892,184.858z
	 M216.256,132.725c0.256-0.982,0.001-1.864-0.375-2.583c-0.18-0.346-1.271-0.239-1.979,0.104c-2.043,0.986-3.96,2.178-5.888,3.359
	c-0.616,0.379-0.703,0.743-0.593,1.459c0.234,1.529,1.255,1.525,2.481,1.463C212.904,136.159,215.523,135.523,216.256,132.725z
	 M230.09,169.797c0.709,0.33,0.801-0.426,1.063-0.857c0.153-0.25,0.384-0.469,0.619-0.652c2.621-2.022,4.631-4.593,6.526-7.268
	c0.488-0.688,0.752-1.409-0.058-1.974c-0.858-0.599-1.842-0.726-2.54,0.246c-1.89,2.624-3.911,5.138-6.029,7.579
	c-0.309,0.359-0.618,0.896-0.433,1.471C229.082,169.094,229.585,169.562,230.09,169.797z M198.321,102.433
	c-0.727-0.018-1.591-0.07-1.638,0.861c-0.041,0.799,0.328,1.401,1.338,1.741c3.461,1.17,6.717,1.508,9.846-0.944
	c0.826-0.647,0.938-1.049,0.157-1.557c-0.514-0.335-1.045-0.611-1.855-0.532c-1.826,0.178-3.636,0.775-5.178,0.436
	C199.886,102.438,199.104,102.453,198.321,102.433z M234.027,146.722c-0.854,0.04-1.69-0.207-2.58,0.39
	c-1.441,0.969-3.005,2.04-4.648,2.332c-1.946,0.347-1.563,2.205-1.411,2.57c0.415,1.01,1.526,0.463,2.384,0.132
	c1.63-0.626,3.166-1.681,4.916-1.761c1.725-0.078,1.871-1.088,2.013-2.305C234.482,147.592,235.104,146.672,234.027,146.722z
	 M173.75,192.553c-0.294,0.35-0.619,0.94-0.1,0.977c1.752,0.121,2.861,0.979,3.624,2.466c0.041,0.083,0.344,0.052,0.521,0.038
	c1.528-0.127,2.7-1.085,3.994-1.747c0.4-0.206,0.113-0.562,0.041-0.915c-0.438-2.108-1.911-2.261-3.284-2.055
	C176.615,191.336,174.963,191.115,173.75,192.553z M104.583,115.25c-1.43,0.098-1.528-0.98-1.961-1.83
	c-1.289-2.53-2.258-3.127-4.601-2.872c0.331,0.493,0.099,1.206,0.687,1.595c1.435,0.951,1.748,2.621,2.398,4.023
	c1.389,2.989,2.554,2.849,4.083,0.935c0.186-0.233,0.409-0.438,0.669-0.715C105.421,115.976,104.977,115.225,104.583,115.25z
	 M237.649,153.02c0.285,0.683,0.614,1.35,0.842,2.048c0.252,0.773,0.35,1.602,0.641,2.359c0.202,0.528,0.69,1.522,1.257,0.576
	c0.711-1.188,2.033-2.21,1.572-3.964c-0.165-0.634-0.046-1.369,0.199-2.096c0.263-0.778,0.407-1.75-0.343-2.673
	C240.344,152.028,240.088,152.258,237.649,153.02z M102.78,95.11c1.41-0.606,2.843-1.449,3.788-2.757
	c0.652-0.902,0.409-1.506-0.85-1.537c-1.329-0.038-2.544,0.498-3.803,0.65c-1.228,0.149-1.782,0.398-1.479,1.524
	C100.431,94.825,101.321,95.738,102.78,95.11z M122.94,189.18c1.715,0.167,1.62-0.854,1.39-1.856
	c-0.331-1.46-3.241-2.44-4.326-1.405c-1.161,1.107-2.022,2.5-2.428,4.18C119.258,188.914,121.136,189.007,122.94,189.18z
	 M126.2,195.882c-0.073,1.38,1.199,1.346,1.95,1.546c1.422,0.374,2.61-0.729,2.827-2.343c0.13-0.962-0.984-1.764-2.693-1.945
	C127.247,193.032,126.283,194.277,126.2,195.882z M204.285,154.895c0.391,1.07,0.994,1.16,1.769,0.294
	c1.607-1.797,2.243-3.708,0.775-5.896C204.957,150.083,203.592,153.005,204.285,154.895z M173.059,136.762
	c-1.115-0.371-2.11-1.49-3.418-0.639c-0.752,0.49-1.05,0.898-0.217,1.875c0.988,1.158,2.231,1.375,3.473,1.638
	c0.368,0.081,1.609-0.073,1.151-1.218C174.247,137.519,173.861,137.026,173.059,136.762z M83.244,196.833
	c-0.409-1.053-1.334-1.38-2.28-1.108c-0.951,0.272-0.898,1.252-0.82,2.066c0.044,0.455,0.422,0.829,0.349,1.348
	c-0.111,0.791,0.008,1.548,1.07,1.227c0.905-0.271,2.032-0.391,2.262-1.639C83.62,198.05,83.475,197.426,83.244,196.833z
	 M86.988,147.594c-0.159,0.736-0.221,1.434,0.447,1.841c1.079,0.655,2.189,1.294,3.439,1.579c0.322,0.073,0.818,0.266,0.802-0.521
	c-0.042-1.948-1.472-3.441-3.46-3.433C87.843,147.231,87.187,146.684,86.988,147.594z M135.724,215.48
	c0.283,1.077,1.609,1.154,2.622,1.213c1.27,0.076,1.913-0.639,2.001-1.904c0.11-1.569-0.984-1.335-1.935-1.337
	C136.414,213.443,135.365,214.117,135.724,215.48z M210.872,158.344c0.888,0.533,1.14-0.416,1.445-0.803
	c0.375-0.472,0.431-1.157,0.948-1.644c0.891-0.838,0.117-1.664-0.435-2.097c-0.577-0.456-1.595-0.522-2.036,0.344
	c-0.388,0.762-1.005,1.503-0.848,2.249C209.783,157.444,210.233,157.957,210.872,158.344z M111.513,165.966
	c-0.248-0.015-0.375,0.067-0.563,0.267c-1.082,1.132-0.725,2.519,0.851,2.936c0.993,0.266,2.024,0.394,3.041,0.582
	C115.015,167.752,113.54,166.077,111.513,165.966z M123.12,126.841c-0.651-0.436-1.061,0.647-1.096,1.313
	c-0.068,1.282,0.669,1.867,1.923,1.857c1.341-0.015,1.284-1.102,1.499-1.735C125.648,125.945,123.878,127.35,123.12,126.841z
	 M226.328,172.836c-0.496-0.157-3.346,2.309-3.258,2.832c0.074,0.463,0.385,0.645,0.825,0.791c1.187,0.389,2.669-0.957,2.79-2.578
	C226.597,173.521,226.918,173.022,226.328,172.836z M168.326,205.303c0.186,0.838,0.404,1.912,1.65,1.874
	c1.106-0.034,1.158-0.979,1.17-1.717c0.019-1.065-0.938-0.946-1.469-1.075C168.841,204.354,168.156,204.549,168.326,205.303z
	 M185.203,148.541c-0.138,0.723,0.641,1.287,1.248,1.362c0.924,0.111,1.668-0.708,1.697-1.461c0.034-0.925-1.111-1.124-1.891-1.667
	C185.549,147.111,185.319,147.92,185.203,148.541z M100.242,108.211c0.936,0.074,1.268-0.967,1.18-1.427
	c-0.15-0.781-0.802-1.727-1.665-1.706c-0.69,0.016-0.806,0.969-0.766,1.754C98.736,107.819,99.466,108.146,100.242,108.211z
	 M216.823,169.92c-0.685-0.038-1.444,0.024-1.348,0.934c0.108,1.016,1.062,1.192,1.849,1.198c0.636,0.006,1.474-0.103,1.384-1.157
	C218.582,169.621,217.596,169.962,216.823,169.92z M157.675,130.559c-0.694-0.128-0.993,0.374-1.038,1.156
	c-0.076,1.282,0.983,1.22,1.642,1.408c0.376,0.104,1.15-0.279,0.903-1.13C159.476,130.73,158.391,130.691,157.675,130.559z
	 M212.366,144.26c-0.481,0.216-1.565,0.029-1.31,1.233c0.135,0.642,0.197,1.252,0.985,1.177c0.9-0.085,1.403-0.703,1.604-1.671
	C213.453,144.416,212.812,144.06,212.366,144.26z M172.588,106.163c0.764-0.114,1.005-1.003,1.077-1.624
	c0.122-1.047-1.017-0.842-1.509-0.937c-1.047-0.199-0.413,0.807-0.496,0.967C171.32,105.744,171.759,106.287,172.588,106.163z
	 M169.24,68.232c2.717,0.773,5.09,2.394,7.773,3.146c2.188,0.613,3.672,1.695,4.846,3.664c0.657,1.103,1.248,2.638,2.979,2.858
	c0.35,0.043,0.522,0.029,0.705-0.186c0.167-0.197,0.181-0.414-0.012-0.639c-0.986-1.157-1.216-2.829-2.61-3.732
	c-0.651-0.424-1.28-1.154-1.174-1.896c0.336-2.327-1.246-3.531-2.658-4.773c-1.76-1.554-3.643-3.311-6.24-1.866
	c-1.659,0.924-3.463,1.028-5.639,1.578C168.035,67.166,168.543,68.033,169.24,68.232z M203.27,78.773
	c-0.236-2.133-2.014-3.522-2.555-5.568c-0.271-1.025-1.508-2.021-2.581-2.785c-0.464-0.33-0.902-0.314-1.356-0.213
	c-1.91,0.433-2.229,2.235-0.749,3.947c1.524,1.763,2.937,3.584,2.731,6.133c-0.065,0.818,0.437,1.504,0.892,2.068
	c0.898,1.117,3.068,1.22,3.38,0.24c0.263-0.832,0.299-1.738,0.437-2.611C203.436,79.572,203.313,79.158,203.27,78.773z
	 M133.437,82.21c-0.074-0.727,0.377-1.993-0.458-2.024c-0.72-0.028-1.237,1.229-1.691,2.035c-0.077,0.139,0.016,0.362-0.027,0.533
	c-0.266,1.009-0.75,1.614-1.872,0.946c-1.244-0.739-2.41-1.013-3.334,0.496c-0.102,0.168-0.433,0.176-0.613,0.315
	c-0.323,0.25-1.088,0.18-0.86,0.822c0.137,0.383,0.54,0.713,1.098,0.795c1.476,0.218,3.1,0.107,4.111,1.575
	c0.141,0.202,0.374,0.196,0.637,0.158c1.586-0.227,3.392-2.306,3.383-4.006C134.033,83.278,133.498,82.801,133.437,82.21z
	 M227.747,103.229c-0.059,1.04,0.284,2.047,1.241,1.912c1.516-0.212,2.057,0.76,2.906,1.527c0.196,0.177-0.075,1.032,0.74,0.597
	c0.444-0.24,0.612-0.45,0.598-0.917c-0.049-1.719-0.122-3.448-1.436-4.755c-0.674-0.667-1.496-1.187-2.322-1.825
	C228.316,100.707,227.827,101.82,227.747,103.229z M160.265,83.459c0.245-1.334-0.893-1.857-1.825-1.987
	c-1.015-0.145-1.928-0.423-2.884-0.724c-0.496-0.158-1.319-0.502-1.88,0.414c-0.506,0.822-0.139,1.421,0.227,1.949
	c0.948,1.361,2.256,2.223,4.355,2.267C159.086,85.24,160.037,84.688,160.265,83.459z M105.37,78.288
	c0.304-0.215,1.303-0.61,0.776-1.459c-0.484-0.78-1.355-0.716-1.922-0.381c-1.357,0.796-2.836,1.06-4.326,1.304
	c-0.646,0.109-0.698,0.741-0.471,0.832c0.836,0.325,0.967,1.776,1.886,1.449C103.113,79.925,104.263,79.07,105.37,78.288z
	 M106.711,81.387c-0.626,0.471-1.189,1.03-0.587,1.865c0.35,0.484,1.016,1.113,1.463,0.517c0.839-1.116,2.332-1.747,2.701-3.598
	C108.963,80.61,107.728,80.626,106.711,81.387z M156.062,77.076c-0.468-0.299-1.058-0.339-1.322-0.988
	c-0.288-0.703-0.792-0.42-1.31-0.15c-0.719,0.375-0.482,1.015-0.244,1.353c0.794,1.126,2.194,1.126,3.364,1.541
	c0.345,0.123,0.511-0.191,0.479-0.556C156.971,77.668,156.498,77.353,156.062,77.076z M138.283,79.892
	c0.989-0.028,0.981-0.995,0.96-1.751c-0.024-0.839-0.004-2.094-0.948-2.063c-0.739,0.026-0.885,1.294-0.854,2.174
	C137.474,78.936,137.237,79.922,138.283,79.892z M227.383,94.495c-0.192,1.349,0.949,1.096,1.57,1.37
	c0.546,0.238,0.594-0.279,0.646-0.729c0.128-1.06-0.597-1.232-1.023-1.346C227.658,93.65,227.472,93.872,227.383,94.495z
	 M182.95,64.356c0.15,0.209,1.072,1.2,1.225,1.407c0.123-0.125,0.178-0.391,0.159-0.489c-0.057-0.288-0.367-1.121-0.727-1.181
	C183.571,64.197,182.725,64.041,182.95,64.356z M171.037,234.473c2.729-1.031,5.428-2.142,8.121-3.262
	c0.425-0.177,1.097-0.438,0.852-1.063c-0.268-0.683-0.763-0.133-1.189-0.032c-3.481,0.813-6.81,2.091-10.152,3.31
	c-0.927,0.337-2.07,0.622-2.162,2.039C168.293,235.938,169.631,235.004,171.037,234.473z M146.573,231.963
	c-0.524,0.154-1.472-0.502-1.493,0.645c-0.019,0.992,0.555,1.566,1.581,1.513c1.177-0.062,2.38,0.252,3.532-0.321
	c0.312-0.158,0.706-0.082,0.666-0.609c-0.031-0.414-0.242-0.709-0.602-0.814c-0.963-0.285-1.93-0.613-2.803-0.423
	C147.054,231.952,146.797,231.898,146.573,231.963z M146.779,235.968c-0.572-0.346-1.408-0.339-1.516,0.456
	c-0.085,0.638,0.303,1.292,1.245,1.357c1.214,0.083,2.331-0.29,3.885-0.563C148.998,236.52,147.78,236.57,146.779,235.968z
	 M161.908,185.132c-0.249-0.327-0.175-1.036-0.841-0.888c-0.442,0.102-0.678,0.386-0.845,0.947
	c-0.276,0.927-0.751,2.045-1.633,2.426c-1.533,0.658-1.896,1.912-2.266,3.258c-0.381,1.394-1.209,1.775-2.404,1.092
	c-1.157-0.662-2.202-0.142-2.322,1.197c-0.057,0.658,0,1.328-0.012,1.991c-0.025,1.538,0.706,2.294,2.264,2.343
	c1.852,0.057,3.597-0.062,5.279-1.066c1.869-1.119,3.775-2.158,5.533-3.461c1.156-0.861,0.805-1.975,0.68-3.029
	c-0.124-1.054-1.057-0.695-1.721-0.824c-0.504-0.098-0.98-0.336-1.715-0.605C163.246,187.236,162.702,186.171,161.908,185.132z
	 M172.68,155.19c0.188,2.06,3.055,4.558,5.07,4.579c0.81,0.012,1.107-0.15,1.299-1.089c0.381-1.878,0.021-3.414-0.928-5.066
	c-1.484-2.587-3.959-3.866-6.477-2.238c0.816,0.625,1.324,1.565,2.5,2.065C173.412,153.96,172.602,154.338,172.68,155.19z
	 M163.664,169.766c-0.451-0.184-0.846-0.617-0.845-1.275c0.001-0.909-0.55-1.605-1.434-1.414c-0.952,0.209-1.008,1.135-0.772,1.973
	c0.697,2.481,0.905,5.002,0.785,7.568c-0.031,0.68-0.065,1.261-0.646,1.754c-0.506,0.434-1.384,1.04-0.525,1.715
	c0.57,0.451,1.336-0.072,1.921-0.575c2.204-1.898,2.183-4.668,2.918-7.127C165.186,171.162,164.898,170.268,163.664,169.766z
	 M183.795,177.104c-0.499,0.728-0.56,1.663,0.466,1.819c1.633,0.25,3.311,0.552,4.965,0.27c0.924-0.158,1.732-1.099,1.031-1.758
	c-0.839-0.786-1.601-2.264-3.253-1.653C185.586,175.363,184.559,175.996,183.795,177.104z M170.24,181.081
	c0.639,0.243,0.956-0.432,1.254-0.818c0.679-0.874,1.154-1.919,1.892-2.728c0.74-0.811,0.32-1.639,0.29-2.438
	c-0.023-0.587-0.818-0.942-1.089-0.513c-1.036,1.641-2.864,2.866-2.87,5.285C169.678,180.228,169.662,180.861,170.24,181.081z
	 M180.396,171.678c0.603-0.202,0.671-0.818,0.555-1.382c-0.136-0.671-0.662-0.82-1.243-0.734c-0.753,0.113-1.53,0.204-2.235,0.467
	c-0.588,0.22-1.211,0.526-1.49,1.193c0.946-0.008,0.876,1.719,2.104,1.192C179.017,172.691,179.627,171.936,180.396,171.678z
	 M171.531,169.912c-0.896,0.012-1.104,0.527-1.084,1.297c0.018,0.654-0.154,1.303,0.936,1.279c0.928-0.022,0.938-0.494,0.862-1.261
	C172.049,170.857,172.775,169.896,171.531,169.912z M146.508,176.702c-0.025,1.146,0.828,1.112,1.572,1.183
	c0.447,0.043,0.975,0.155,0.979-0.633c0.007-0.986-0.531-1.231-1.442-1.159C147.248,176.205,146.528,175.753,146.508,176.702z"/>
</svg>
